HIERARCHY
ROOT Hips
{
	OFFSET	0.00	0.00	0.00
	CHANNELS 6 Xposition Yposition Zposition Zrotation Xrotation Yrotation
	JOINT LeftUpperLeg
	{
		OFFSET	 0.100000	-0.066564	-0.000554
		CHANNELS 3 Zrotation Xrotation Yrotation
		JOINT LeftLowerLeg
		{
			OFFSET	 0.002447	-0.463436	-0.005172
			CHANNELS 3 Zrotation Xrotation Yrotation
			JOINT LeftFoot
			{
				OFFSET	-0.002447	-0.420480	-0.020576
				CHANNELS 3 Zrotation Xrotation Yrotation
				JOINT LeftToes
				{
					OFFSET	 0.003734	-0.104922	 0.126407
					CHANNELS 3 Zrotation Xrotation Yrotation
					End Site
					{
						OFFSET	 0.000000	 0.000000	 0.059955
					}
				}
			}
		}
	}
	JOINT RightUpperLeg
	{
		OFFSET	-0.100000	-0.066564	-0.000554
		CHANNELS 3 Zrotation Xrotation Yrotation
		JOINT RightLowerLeg
		{
			OFFSET	-0.002447	-0.463436	-0.005146
			CHANNELS 3 Zrotation Xrotation Yrotation
			JOINT RightFoot
			{
				OFFSET	 0.002447	-0.420479	-0.020602
				CHANNELS 3 Zrotation Xrotation Yrotation
				JOINT RightToes
				{
					OFFSET	-0.003734	-0.104922	 0.126407
					CHANNELS 3 Zrotation Xrotation Yrotation
					End Site
					{
						OFFSET	-0.000000	 0.000000	 0.059955
					}
				}
			}
		}
	}
	JOINT Spine
	{
		OFFSET	 0.000000	 0.099235	-0.012273
		CHANNELS 3 Zrotation Xrotation Yrotation
		JOINT Chest
		{
			OFFSET	-0.000001	 0.116455	-0.014223
			CHANNELS 3 Zrotation Xrotation Yrotation
			JOINT UpperChest
			{
				OFFSET	 0.000001	 0.133602	-0.016265
				CHANNELS 3 Zrotation Xrotation Yrotation
				JOINT LeftShoulder
				{
					OFFSET	 0.061058	 0.091105	 0.007056
					CHANNELS 3 Zrotation Xrotation Yrotation
					JOINT LeftUpperArm
					{
						OFFSET	 0.133942	-0.002659	-0.026009
						CHANNELS 3 Zrotation Xrotation Yrotation
						JOINT LeftLowerArm
						{
							OFFSET	 0.274047	 0.000000	 0.000000
							CHANNELS 3 Zrotation Xrotation Yrotation
							JOINT LeftHand
							{
								OFFSET	 0.276145	 0.000000	 0.000000
								CHANNELS 3 Zrotation Xrotation Yrotation
								End Site
								{
									OFFSET	 0.165687	 0.000000	 0.000000
								}
							}
						}
					}
				}
				JOINT Neck
				{
					OFFSET	 0.000000	 0.150325	 0.007929
					CHANNELS 3 Zrotation Xrotation Yrotation
					JOINT Head
					{
						OFFSET	 0.000000	 0.103218	 0.031424
						CHANNELS 3 Zrotation Xrotation Yrotation
						End Site
						{
							OFFSET	 0.000000	 0.061931	 0.018855
						}
					}
				}
				JOINT RightShoulder
				{
					OFFSET	-0.061057	 0.091105	 0.007056
					CHANNELS 3 Zrotation Xrotation Yrotation
					JOINT RightUpperArm
					{
						OFFSET	-0.133943	-0.002660	-0.026009
						CHANNELS 3 Zrotation Xrotation Yrotation
						JOINT RightLowerArm
						{
							OFFSET	-0.274047	 0.000000	 0.000000
							CHANNELS 3 Zrotation Xrotation Yrotation
							JOINT RightHand
							{
								OFFSET	-0.276145	 0.000000	 0.000000
								CHANNELS 3 Zrotation Xrotation Yrotation
								End Site
								{
									OFFSET	-0.165687	 0.000000	 0.000000
								}
							}
						}
					}
				}
			}
		}
	}
}
MOTION
Frames:    12
Frame Time: 0.03333334
-0.228920	 1.049190	 0.387530	-3.173026	 1.564307	-2.370156	 1.553580	-10.738950	 8.076984	 0.007804	 20.828180	-0.010745	 4.452748	-11.546840	 11.797630	-0.000125	 0.358137	 0.231394	 4.973892	-16.474600	-11.118040	 0.000908	 0.075097	 0.000580	-6.181949	 20.230630	-7.365555	-0.000226	 0.401080	-0.000646	 0.664085	 0.711937	-1.894388	-0.000000	 0.000000	 0.000000	 1.355064	 1.404020	-3.803587	 0.360005	 1.634785	 14.286550	-79.789510	 2.848682	-8.016721	-48.696430	 28.188350	-45.205200	 8.577565	-0.156977	-1.775218	 6.870432	 3.152600	 0.238282	 6.844586	 3.429262	 0.110679	 0.000184	 1.356972	-17.036910	 82.195190	 10.813110	 8.512847	 38.905260	 29.562340	 50.388940	-32.899250	-25.444540	 15.555810
-0.239680	 1.046300	 0.377680	-2.408250	 1.656775	-2.889671	 1.623687	-12.203220	 7.887378	 0.006556	 22.411200	-0.009616	 3.669634	-11.707480	 12.284980	-0.000217	 0.358473	 0.212174	 4.252263	-16.983500	-12.642000	 0.000506	 0.074426	 0.000526	-4.427873	 20.244470	-2.100391	 0.000295	 0.408999	 0.094107	 0.551671	 0.589564	-1.789049	-0.000000	 0.000000	 0.000000	 1.124827	 1.163670	-3.587451	-0.140931	 1.454763	 14.808260	-78.988600	 3.705042	-8.561463	-50.668320	 28.701470	-44.045800	 7.454098	-1.349359	-2.414000	 6.113232	 3.184581	 0.395161	 6.291408	 3.279896	 0.259359	-0.249078	 1.635264	-16.846940	 81.521380	 12.022410	 9.748753	 40.096510	 30.693070	 48.588910	-34.735170	-25.862270	 14.327220
-0.247430	 1.043040	 0.370600	-1.595555	 1.606486	-3.385612	 1.521619	-13.318580	 8.129005	-0.034676	 23.923090	-0.000447	 3.178410	-12.051450	 12.473050	-0.000280	 0.357521	 0.205785	 4.083830	-17.283030	-10.682730	-0.000202	 0.080106	 0.000311	-5.085318	 19.436830	-2.548703	 0.000960	 0.389357	 0.021640	 0.354817	 0.612537	-1.735219	-0.000000	 0.000000	 0.000000	 0.729686	 1.215970	-3.481392	-0.479422	 1.374697	 14.923420	-78.673560	 4.076177	-8.643987	-50.963950	 29.318950	-44.036400	 7.230790	-2.583842	-2.623872	 5.520260	 3.194523	 0.550954	 5.922977	 3.155919	 0.455387	-0.559952	 1.775174	-16.806850	 81.261420	 13.175130	 10.640130	 39.106230	 31.554970	 48.102840	-36.906330	-24.744700	 14.927600
-0.247430	 1.043040	 0.370600	-1.595555	 1.606486	-3.385612	 1.521619	-13.318580	 8.129005	-0.034676	 23.923090	-0.000447	 3.178410	-12.051450	 12.473050	-0.000280	 0.357521	 0.205785	 4.083830	-17.283030	-10.682730	-0.000202	 0.080106	 0.000311	-5.085318	 19.436830	-2.548703	 0.000960	 0.389357	 0.021640	 0.354817	 0.612537	-1.735219	-0.000000	 0.000000	 0.000000	 0.729686	 1.215970	-3.481392	-0.479422	 1.374697	 14.923420	-78.673560	 4.076177	-8.643987	-50.963950	 29.318950	-44.036400	 7.230790	-2.583842	-2.623872	 5.520260	 3.194523	 0.550954	 5.922977	 3.155919	 0.455387	-0.559952	 1.775174	-16.806850	 81.261420	 13.175130	 10.640130	 39.106230	 31.554970	 48.102840	-36.906330	-24.744700	 14.927600
-0.253480	 1.039970	 0.365030	-0.984984	 1.458899	-3.780450	 1.477226	-14.213210	 8.551050	 0.041619	 25.358690	-0.015219	 2.802156	-12.455140	 12.429800	 0.000040	 0.359187	 0.208915	 4.036068	-17.391870	-10.208440	 0.000138	 0.089858	-0.000553	-5.204212	 18.294030	-2.782437	 0.000052	 0.374237	 0.087536	 0.226169	 0.720200	-1.731170	-0.000000	 0.000000	 0.000000	 0.474799	 1.435200	-3.470616	-0.499844	 1.547902	 14.830330	-78.556560	 3.999224	-8.793809	-51.685780	 29.320780	-43.758210	 7.093185	-3.414473	-2.675974	 5.417644	 3.284906	 0.633838	 5.685104	 3.082294	 0.649229	-0.470396	 1.818164	-16.834100	 80.935360	 13.869210	 11.302730	 38.841260	 32.352640	 47.704310	-38.161080	-24.331980	 15.124000
-0.262550	 1.035260	 0.357120	-0.424866	 1.541183	-4.306678	 1.785069	-15.860450	 8.747991	-0.031394	 27.583780	 0.003972	 2.549732	-13.015530	 12.854000	 0.000086	 0.359365	 0.247445	 4.393544	-17.809190	-10.025830	 0.000535	 0.079253	 0.000772	-6.177057	 16.577880	-2.503184	-0.000035	 0.360188	 0.094131	 0.134164	 0.744098	-1.712400	-0.000000	 0.000000	 0.000000	 0.292782	 1.487084	-3.432346	-0.544407	 1.514099	 14.834400	-78.507530	 3.884861	-8.902164	-52.245130	 29.358320	-43.332560	 7.002828	-4.353989	-3.139544	 5.333480	 3.129729	 0.952966	 5.520507	 3.085071	 0.924156	-0.447578	 1.530382	-16.843870	 80.519460	 14.608430	 12.091500	 39.325780	 32.918290	 46.960210	-39.092860	-23.154350	 15.042510
-0.269510	 1.031790	 0.351140	-0.099073	 1.647216	-4.434824	 2.120929	-17.155440	 9.159492	 0.020863	 29.219080	-0.006718	 2.575864	-13.295100	 12.647280	-0.000162	 0.361622	 0.321447	 4.645914	-18.193400	-9.522911	 0.000067	 0.089919	 0.000022	-6.696994	 15.626720	-2.713756	-0.000179	 0.355929	 0.097932	 0.115782	 0.717304	-1.742161	-0.000000	 0.000000	 0.000000	 0.255837	 1.434097	-3.491793	-0.476611	 1.457725	 14.704240	-78.757760	 4.221937	-8.561869	-51.978420	 29.431550	-43.599670	 6.808213	-4.794493	-3.379187	 5.458514	 3.038902	 1.001454	 5.489410	 3.099933	 1.056880	-0.613260	 0.936704	-16.538690	 80.472330	 14.603800	 11.820800	 39.194640	 33.463330	 46.746060	-39.668420	-21.955890	 14.483330
-0.278720	 1.027770	 0.342670	 0.259365	 1.674820	-4.325388	 2.512925	-18.724120	 9.175970	 0.051736	 31.153000	-0.013740	 2.540426	-13.405860	 12.588090	 0.000035	 0.364915	 0.407407	 4.854547	-18.728070	-8.186281	 0.000742	 0.080105	 0.000934	-6.514510	 15.910310	-3.799406	-0.000205	 0.357717	 0.174395	 0.131151	 0.809374	-1.794989	-0.000000	 0.000000	 0.000000	 0.289276	 1.619012	-3.597258	-0.548194	 1.591316	 14.564000	-79.056030	 4.722019	-8.502972	-51.959840	 29.320400	-43.645900	 6.852583	-4.007805	-4.171350	 5.516086	 3.079437	 1.069158	 5.487759	 2.903887	 1.190376	-0.789282	 0.611772	-16.309720	 80.222030	 14.896850	 11.649980	 38.582510	 33.673100	 47.280800	-40.702040	-21.416970	 13.623280
-0.285880	 1.025330	 0.335510	 0.178068	 1.852396	-4.131901	 3.140984	-19.997390	 8.810570	-0.081751	 32.376020	 0.024242	 2.585780	-13.220660	 12.738930	-0.000265	 0.368327	 0.480552	 5.342864	-19.299860	-7.612338	 0.001009	 0.080178	-0.000096	-6.317331	 16.192750	-4.318372	-0.000428	 0.359459	 0.254095	 0.315223	 0.893279	-1.820372	-0.000000	 0.000000	 0.000000	 0.660707	 1.780146	-3.652690	-0.294088	 1.523604	 14.536430	-79.449130	 4.917504	-8.742420	-51.944530	 29.182530	-43.447380	 6.700675	-3.878375	-4.559507	 5.804854	 2.783493	 1.207596	 5.442751	 2.605286	 1.269574	-0.668364	 0.396966	-16.241070	 80.161690	 15.177620	 11.516790	 38.455130	 33.430640	 47.715620	-41.266570	-20.811010	 13.622730
-0.292790	 1.023140	 0.328090	 0.320171	 2.215845	-3.923276	 3.651407	-21.312130	 9.308328	 0.014770	 33.290680	-0.004664	 2.432243	-13.014760	 12.121510	 0.000884	 0.370543	 0.525495	 5.622657	-20.079450	-7.412283	 0.000629	 0.079215	 0.000438	-6.440680	 16.327190	-4.381914	 0.000783	 0.360157	 0.304162	 0.398277	 0.877615	-1.763138	-0.000000	 0.000000	 0.000000	 0.824564	 1.746675	-3.541008	-0.346120	 1.376879	 14.457310	-79.996460	 5.024089	-9.003132	-51.867790	 29.145420	-43.239870	 6.418224	-3.767042	-4.721272	 5.601675	 2.258075	 1.354283	 5.440890	 2.270895	 1.235058	-0.912822	 0.230417	-16.159210	 80.221320	 15.110150	 11.359040	 38.573610	 33.199160	 48.125210	-42.068350	-20.208460	 13.402260
-0.306920	 1.018430	 0.311410	 1.192069	 2.675094	-2.587723	 4.107449	-23.668560	 10.708910	 0.140204	 34.589620	-0.043192	 2.278087	-12.043220	 9.626946	 0.001056	 0.376385	 0.610711	 5.279109	-21.608850	-7.798200	 0.000284	 0.078588	 0.000067	-6.559542	 16.955200	-4.976121	-0.000213	 0.443488	-0.000094	 0.398344	 1.002743	-1.842999	-0.000000	 0.000000	 0.000000	 0.832087	 1.995094	-3.698975	-0.289766	 1.279776	 14.079050	-80.391650	 5.981680	-9.562297	-51.191550	 29.121020	-42.768590	 6.371124	-1.460324	-6.668773	 5.515506	 1.466099	 1.031979	 5.510587	 1.382099	 1.127475	-1.128233	 0.552087	-16.389800	 80.790690	 14.221100	 10.951450	 38.402950	 33.225800	 49.291140	-43.123250	-19.066510	 12.945890
-0.306920	 1.018430	 0.311410	 1.192069	 2.675094	-2.587723	 4.107449	-23.668560	 10.708910	 0.140204	 34.589620	-0.043192	 2.278087	-12.043220	 9.626946	 0.001056	 0.376385	 0.610711	 5.279109	-21.608850	-7.798200	 0.000284	 0.078588	 0.000067	-6.559542	 16.955200	-4.976121	-0.000213	 0.443488	-0.000094	 0.398344	 1.002743	-1.842999	-0.000000	 0.000000	 0.000000	 0.832087	 1.995094	-3.698975	-0.289766	 1.279776	 14.079050	-80.391650	 5.981680	-9.562297	-51.191550	 29.121020	-42.768590	 6.371124	-1.460324	-6.668773	 5.515506	 1.466099	 1.031979	 5.510587	 1.382099	 1.127475	-1.128233	 0.552087	-16.389800	 80.790690	 14.221100	 10.951450	 38.402950	 33.225800	 49.291140	-43.123250	-19.066510	 12.945890
